<?xml version="1.0" encoding="UTF-8" standalone="no"?>
<!-- Created with Inkscape (http://www.inkscape.org/) -->

<svg
   width="104.39401mm"
   height="91.906174mm"
   viewBox="0 0 104.39401 91.906174"
   version="1.1"
   id="svg5"
   xml:space="preserve"
   xmlns:inkscape="http://www.inkscape.org/namespaces/inkscape"
   xmlns:sodipodi="http://sodipodi.sourceforge.net/DTD/sodipodi-0.dtd"
   xmlns="http://www.w3.org/2000/svg"
   xmlns:svg="http://www.w3.org/2000/svg"><sodipodi:namedview
     id="namedview7"
     pagecolor="#ffffff"
     bordercolor="#000000"
     borderopacity="0.25"
     inkscape:showpageshadow="2"
     inkscape:pageopacity="0.0"
     inkscape:pagecheckerboard="0"
     inkscape:deskcolor="#d1d1d1"
     inkscape:document-units="mm"
     showgrid="false" /><defs
     id="defs2" /><g
     inkscape:label="Layer 1"
     inkscape:groupmode="layer"
     id="layer1"
     transform="translate(-11.388919,-54.657725)"><g
       style="opacity:1;fill:#ffffff;fill-opacity:1;stroke:#ffffff;stroke-width:0;stroke-dasharray:none;stroke-opacity:1"
       id="g60"
       transform="matrix(0.20366839,0,0,0.20366839,11.388976,48.413864)"
       inkscape:export-filename="g60.svg"
       inkscape:export-xdpi="96"
       inkscape:export-ydpi="96"><g
         transform="translate(1,1)"
         id="g50"
         style="fill:#ffffff;fill-opacity:1;stroke:#ffffff;stroke-width:0;stroke-dasharray:none;stroke-opacity:1">
	<g
   id="g48"
   style="fill:#ffffff;fill-opacity:1;stroke:#ffffff;stroke-width:0;stroke-dasharray:none;stroke-opacity:1">
		<path
   d="M 510.266,329.047 336.707,33.996 c -1.736,-2.603 -4.339,-4.339 -7.81,-4.339 H 172.694 c -3.471,0 -6.075,1.736 -7.81,3.471 L 0.002,310.823 c -0.868,2.603 -1.736,6.075 0,8.678 l 76.873,153.745 c 0.15,1.172 0.555,2.315 1.229,3.326 0.691,1.036 1.66,1.926 2.737,2.632 1.413,1.125 3.098,1.707 5.074,1.707 h 338.441 c 3.471,0 6.075,-1.736 7.81,-4.339 l 78.102,-138.847 c 1.734,-2.604 1.734,-6.075 -0.002,-8.678 z m -22.562,-4.339 H 342.782 L 253.736,165.52 c -0.169,-1.061 -0.568,-2.134 -1.205,-3.09 L 187.804,47.013 H 323.69 Z m -165.213,0 H 172.453 l 72.205,-139.28 z M 172.417,56.155 l 35.248,63.076 26.642,48.406 -83.309,160.285 c -0.307,0.355 -0.601,0.726 -0.867,1.125 L 85.837,452.987 17.358,316.03 Z m 246.731,407.4 H 100.472 l 62.983,-121.492 h 174.12 150.129 z"
   id="path46"
   style="fill:#ffffff;fill-opacity:1;stroke:#ffffff;stroke-width:0;stroke-dasharray:none;stroke-opacity:1" />
	</g>
</g></g></g></svg>
