<?xml version="1.0" encoding="UTF-8" standalone="no"?>
<!-- Created with Inkscape (http://www.inkscape.org/) -->

<svg
   width="133.48228mm"
   height="134.89847mm"
   viewBox="0 0 133.48228 134.89847"
   version="1.1"
   id="svg5"
   xml:space="preserve"
   xmlns:inkscape="http://www.inkscape.org/namespaces/inkscape"
   xmlns:sodipodi="http://sodipodi.sourceforge.net/DTD/sodipodi-0.dtd"
   xmlns="http://www.w3.org/2000/svg"
   xmlns:svg="http://www.w3.org/2000/svg"><sodipodi:namedview
     id="namedview7"
     pagecolor="#ffffff"
     bordercolor="#000000"
     borderopacity="0.25"
     inkscape:showpageshadow="2"
     inkscape:pageopacity="0.0"
     inkscape:pagecheckerboard="0"
     inkscape:deskcolor="#d1d1d1"
     inkscape:document-units="mm"
     showgrid="false" /><defs
     id="defs2"><style
       id="style1102">.cls-1{fill:none;stroke:#000000;stroke-linecap:round;stroke-linejoin:round;stroke-width:2px;}</style></defs><g
     inkscape:label="Layer 1"
     inkscape:groupmode="layer"
     id="layer1"
     transform="translate(-35.52451,-141.71673)"><g
       id="g1194"
       transform="translate(-5.3166155,20.822628)"><g
         id="g1130"
         transform="matrix(3.3072917,0,0,3.3072917,1.6827946,82.523562)"
         style="stroke:#ffffff;stroke-opacity:1"><path
           class="cls-1"
           d="M 21.5,16.44 A 16.29,16.29 0 0 1 39.75,14.56"
           id="path1108"
           style="stroke:#ffffff;stroke-opacity:1" /><path
           class="cls-1"
           d="M 44.49,19.45 A 12.34,12.34 0 0 1 47,21.27 c 3.05,2.86 4.2,6.82 4.2,10.94 a 19.18,19.18 0 1 1 -38.36,0 44.94,44.94 0 0 1 2.72,-15.11 l 2,3.25 h 4.58 c 2.26,-2.91 6.42,-1.83 6.42,-1.83 -4.5,3.25 -2.08,5.5 -2.08,5.5 h 5.11 l -4.95,4 2.6,2.58 h -4.6 c 0.5,7.34 11,3.59 11,3.59 a 6.84,6.84 0 0 1 -3.67,3.89"
           id="path1110"
           style="stroke:#ffffff;stroke-opacity:1" /><path
           class="cls-1"
           d="m 42.73,33.43 c -0.07,0.2 -0.16,0.39 -0.25,0.59 A 11.42,11.42 0 0 1 22.7,36.14"
           id="path1112"
           style="stroke:#ffffff;stroke-opacity:1" /><path
           class="cls-1"
           d="m 44.49,19.45 a 10,10 0 0 0 -3.92,-1.3 c -2.08,-0.21 -4.65,0.13 -6.34,-1.38 -0.47,-0.42 -0.68,1.11 -0.69,1.28 v 0.14 a 3.94,3.94 0 0 0 0.08,0.77 5.34,5.34 0 0 0 0.8,2 c 1.74,2.7 5.15,3.93 8.14,4.6 l 0.18,0.07 c 1.24,0.62 1,2.19 0.94,3.32 a 15.92,15.92 0 0 1 -1,4.52 c -0.07,0.2 -0.16,0.39 -0.25,0.59"
           id="path1114"
           style="stroke:#ffffff;stroke-opacity:1" /><path
           class="cls-1"
           d="M 42,42.81 A 14.38,14.38 0 0 1 24.09,44.45"
           id="path1116"
           style="stroke:#ffffff;stroke-opacity:1" /><circle
           cx="21.58"
           cy="34"
           r="1"
           id="circle1118"
           style="stroke:#ffffff;stroke-opacity:1" /></g><circle
         style="fill:#ffffff;fill-opacity:1;stroke:#ffffff;stroke-width:0;stroke-linecap:round;stroke-linejoin:round;stroke-dasharray:none;stroke-opacity:1"
         id="path1184"
         cx="73.04081"
         cy="195.00793"
         r="1.9464686" /></g></g></svg>
