<?xml version="1.0" encoding="UTF-8" standalone="no"?>
<!-- Created with Inkscape (http://www.inkscape.org/) -->

<svg
   width="150.84715mm"
   height="168.15953mm"
   viewBox="0 0 150.84715 168.15953"
   version="1.1"
   id="svg5"
   xml:space="preserve"
   xmlns:inkscape="http://www.inkscape.org/namespaces/inkscape"
   xmlns:sodipodi="http://sodipodi.sourceforge.net/DTD/sodipodi-0.dtd"
   xmlns="http://www.w3.org/2000/svg"
   xmlns:svg="http://www.w3.org/2000/svg"><sodipodi:namedview
     id="namedview7"
     pagecolor="#ffffff"
     bordercolor="#000000"
     borderopacity="0.25"
     inkscape:showpageshadow="2"
     inkscape:pageopacity="0.0"
     inkscape:pagecheckerboard="0"
     inkscape:deskcolor="#d1d1d1"
     inkscape:document-units="mm"
     showgrid="false" /><defs
     id="defs2" /><g
     inkscape:label="Layer 1"
     inkscape:groupmode="layer"
     id="layer1"
     transform="translate(-29.771025,-64.761175)"><g
       style="fill:none;fill-opacity:1;stroke:#ffffff;stroke-opacity:1"
       id="g112"
       transform="matrix(1.1024306,0,0,1.1024306,2.5053984,43.007489)"
       inkscape:label="g112"
       inkscape:export-filename="g112.svg"
       inkscape:export-xdpi="96"
       inkscape:export-ydpi="96"><path
         stroke="#000000"
         stroke-linecap="round"
         stroke-linejoin="round"
         stroke-width="12"
         d="m 120.755,170 c 0.03,-4.669 0.059,-20.874 0.059,-27.29 0,-9.272 -3.167,-15.339 -6.719,-18.41 22.051,-2.464 45.201,-10.863 45.201,-49.067 0,-10.855 -3.824,-19.735 -10.175,-26.683 1.017,-2.516 4.413,-12.63 -0.987,-26.32 0,0 -8.296,-2.672 -27.202,10.204 -7.912,-2.213 -16.371,-3.308 -24.784,-3.352 -8.414,0.044 -16.872,1.14 -24.785,3.352 C 52.457,19.558 44.162,22.23 44.162,22.23 38.762,35.92 42.158,46.034 43.175,48.55 36.824,55.498 33,64.378 33,75.233 c 0,38.204 23.149,46.603 45.2,49.067 -3.551,3.071 -6.719,9.138 -6.719,18.41 0,6.416 0.03,22.621 0.059,27.29 M 27,130 c 9.939,0.703 15.67,9.735 15.67,9.735 8.834,15.199 23.178,10.803 28.815,8.265"
         id="path103"
         style="fill:none;fill-opacity:1;stroke:#ffffff;stroke-width:4.53543;stroke-dasharray:none;stroke-opacity:1" /></g></g></svg>
