<?xml version="1.0" encoding="UTF-8" standalone="no"?>
<!-- Created with Inkscape (http://www.inkscape.org/) -->

<svg
   width="163.75119mm"
   height="117.94479mm"
   viewBox="0 0 163.75119 117.94479"
   version="1.1"
   id="svg5"
   xml:space="preserve"
   xmlns:inkscape="http://www.inkscape.org/namespaces/inkscape"
   xmlns:sodipodi="http://sodipodi.sourceforge.net/DTD/sodipodi-0.dtd"
   xmlns="http://www.w3.org/2000/svg"
   xmlns:svg="http://www.w3.org/2000/svg"><sodipodi:namedview
     id="namedview7"
     pagecolor="#ffffff"
     bordercolor="#000000"
     borderopacity="0.25"
     inkscape:showpageshadow="2"
     inkscape:pageopacity="0.0"
     inkscape:pagecheckerboard="0"
     inkscape:deskcolor="#d1d1d1"
     inkscape:document-units="mm"
     showgrid="false" /><defs
     id="defs2" /><g
     inkscape:label="Layer 1"
     inkscape:groupmode="layer"
     id="layer1"
     transform="translate(-19.095507,-64.865751)"><g
       id="g2449"
       transform="translate(-4.5354217,-4.1678487)"><path
         d="M 182.10296,89.790632 A 19.645313,19.645313 0 0 0 165.03734,73.849486 c -19.84375,-1.256771 -39.6875,-2.282032 -59.53125,-2.315105 -19.843755,-0.03307 -39.687505,0.992188 -59.531255,2.248959 a 19.645313,19.645313 0 0 0 -17.098698,15.941146 262.10287,262.10287 0 0 0 0,75.670834 20.40599,20.40599 0 0 0 17.164844,16.53646 c 19.84375,1.25677 39.6875,2.54661 59.531249,2.54661 19.84375,0 39.6875,-1.12448 59.53125,-2.41432 a 20.6375,20.6375 0 0 0 17.13177,-16.86719 258.59714,258.59714 0 0 0 2.64584,-37.63698 257.96875,257.96875 0 0 0 -2.77813,-37.769268 z"
         id="path2381"
         style="fill:none;stroke:#ffffff;stroke-width:5;stroke-dasharray:none;stroke-opacity:1" /><polygon
         points="26.56,24.79 39.55,31.76 26.56,38.73 "
         id="polygon2383"
         style="fill:none;stroke:#ffffff;stroke-width:1.51181;stroke-linejoin:round;stroke-dasharray:none;stroke-opacity:1"
         transform="matrix(3.3072917,0,0,3.3072917,-0.32724889,22.255735)" /></g></g></svg>
